<svg xmlns="http://www.w3.org/2000/svg" viewBox="0 0 2133.19 1596.68"><defs><style>.cls-1{fill:#1f9ebc;}.cls-2{fill:#106883;}.cls-3{fill:#093046;}.cls-4{fill:#8ecae6;}.cls-5{fill:#fab613;}</style></defs><g id="Layer_2" data-name="Layer 2"><g id="Layer_1-2" data-name="Layer 1"><path class="cls-1" d="M530.73,1.52,825.32,568.29a2.53,2.53,0,0,1,.09,2.1L721.26,823.65l-1.42,3.48L536,1274.62a2.36,2.36,0,0,1-2.17,1.49h-5.14a2.39,2.39,0,0,1-2.35-2.43V2.66A2.34,2.34,0,0,1,530.73,1.52Z"/><path class="cls-1" d="M1606.9,824.47v449.27a2.34,2.34,0,0,1-2.3,2.37h-4.38a2.33,2.33,0,0,1-2.29-2.37h0a2.38,2.38,0,0,0-.18-.91L1310.24,565.59a2.41,2.41,0,0,1,.09-2L1602.58,1.29a2.29,2.29,0,0,1,4.32,1.11Z"/><polygon class="cls-2" points="1606.89 1273.27 1606.89 1276.11 526.3 1276.11 716.54 827.13 718.01 823.65 720.02 824.48 962.64 824.48 1066.55 1018.38 1170.46 824.48 1418.66 824.48 1606.89 1273.27"/><polyline class="cls-3" points="1418.66 824.48 1170.46 824.48 1309.81 564.56"/><path class="cls-4" d="M1308.8,566.43l-137.08,255.7a4.44,4.44,0,0,1-3.92,2.34H965.3a4.44,4.44,0,0,1-3.92-2.34L826.86,571.2a4.46,4.46,0,0,1-.17-3.84L1066,2.71a4.45,4.45,0,0,1,8.2,0L1309,562.6A4.47,4.47,0,0,1,1308.8,566.43Z"/><polygon class="cls-5" points="1170.46 824.48 1066.55 1018.38 962.64 824.48 1170.46 824.48"/><polygon class="cls-3" points="825.86 569.32 962.64 824.48 720.02 824.48 718.01 823.65 825.86 569.32"/><polygon class="cls-5" points="454.59 1543.48 520.76 1543.48 488.32 1464.76 454.59 1543.48"/><polygon class="cls-3" points="24.91 1543.48 91.08 1543.48 58.65 1464.76 24.91 1543.48"/><polygon class="cls-3" points="1142.83 1543.48 1209.01 1543.48 1176.57 1464.76 1142.83 1543.48"/><path class="cls-3" d="M0,1593.39,58.07,1450h.77l58.07,143.42H106.26L55.74,1465.06l6.59-3.67-52.85,132ZM28.07,1539H89l2.71,8.91h-66Z"/><path class="cls-3" d="M148.65,1456h9.49V1584.3h75.29v9.09H148.65Z"/><path class="cls-3" d="M265.37,1593.39V1452.87h.19l67.75,96.2-4.07-.58,67.55-95.62h.2v140.52H387.7V1474.74l.77,4.65-57.29,80.71h-.39l-57.68-80.71,1.55-4.26v118.26Z"/><path class="cls-3" d="M428.73,1593.39,486.8,1450h.77l58.07,143.42H535l-50.52-128.33,6.58-3.67-52.84,132ZM456.8,1539h61l2.71,8.91h-66Z"/><path class="cls-3" d="M636.8,1593.39V1456h33.87q19.94,0,34,6.29a63.07,63.07,0,0,1,22.75,16.55,67.51,67.51,0,0,1,12.77,22.45,76.14,76.14,0,0,1,4.07,24.19,70.14,70.14,0,0,1-5.42,28.17A64.65,64.65,0,0,1,724,1575a66.2,66.2,0,0,1-21.39,13.64,68.39,68.39,0,0,1-25.36,4.74Zm9.49-9.09h28.45a65.67,65.67,0,0,0,23.23-4.07A56.28,56.28,0,0,0,717,1568.42a54.54,54.54,0,0,0,12.87-18.67,63,63,0,0,0,4.65-24.88,64.72,64.72,0,0,0-4-22.55,55,55,0,0,0-11.9-19.06,56.67,56.67,0,0,0-19.55-13.16q-11.61-4.85-27.1-4.84H646.29Z"/><path class="cls-3" d="M779.26,1456h9.48v137.42h-9.48Z"/><path class="cls-3" d="M936.23,1583.72a48.69,48.69,0,0,1-8.42,4.35,89.92,89.92,0,0,1-10.55,3.58,94.34,94.34,0,0,1-11.51,2.42,79.93,79.93,0,0,1-40.46-4.45,66.06,66.06,0,0,1-22.35-14.71A64.51,64.51,0,0,1,828.71,1553a72.84,72.84,0,0,1-4.93-27,73.87,73.87,0,0,1,5.51-28.85,69.3,69.3,0,0,1,15.2-22.74,68.2,68.2,0,0,1,22.45-14.8,70.78,70.78,0,0,1,27.1-5.23,74.63,74.63,0,0,1,20.42,2.71,71.57,71.57,0,0,1,17.32,7.35L928.3,1473a55.57,55.57,0,0,0-10.07-4.74,78.14,78.14,0,0,0-11.51-3.2A61,61,0,0,0,895,1463.9a63.06,63.06,0,0,0-24.38,4.65,59.15,59.15,0,0,0-32.52,32.52,66.47,66.47,0,0,0-.29,48.1,57.59,57.59,0,0,0,12.39,19.16,55.8,55.8,0,0,0,19.26,12.77,65.73,65.73,0,0,0,25,4.55,80.3,80.3,0,0,0,17-1.93,53,53,0,0,0,15.29-5.62V1540h-31v-9.1h40.45Z"/><path class="cls-3" d="M975.91,1456h9.49v137.42h-9.49Z"/><path class="cls-3" d="M1018.11,1456h90v9.09h-40.45v128.33h-9.48V1465.06h-40.07Z"/><path class="cls-3" d="M1117.79,1593.39,1175.86,1450h.77l58.07,143.42h-10.64l-50.52-128.33,6.58-3.67-52.84,132Zm28.07-54.39h61l2.71,8.91h-66Z"/><path class="cls-3" d="M1266.44,1456h9.49V1584.3h75.29v9.09h-84.78Z"/><path class="cls-3" d="M1442.58,1593.39V1456h33.87q19.93,0,34,6.29a63.07,63.07,0,0,1,22.75,16.55,67.51,67.51,0,0,1,12.77,22.45,76.12,76.12,0,0,1,4.06,24.19,70,70,0,0,1-5.42,28.17,64.48,64.48,0,0,1-14.8,21.39,66.2,66.2,0,0,1-21.39,13.64,68.39,68.39,0,0,1-25.36,4.74Zm9.48-9.09h28.46a65.58,65.58,0,0,0,23.22-4.07,56.33,56.33,0,0,0,19.07-11.81,54.68,54.68,0,0,0,12.87-18.67,63,63,0,0,0,4.65-24.88,64.72,64.72,0,0,0-4-22.55,55.16,55.16,0,0,0-11.9-19.06,56.77,56.77,0,0,0-19.55-13.16q-11.62-4.85-27.1-4.84h-25.75Z"/><path class="cls-3" d="M1585,1456h84.78v9.09h-75.3v54.59h67.75v9.1h-67.75v55.55h78v9.09H1585Z"/><path class="cls-3" d="M1777.43,1471.45a94.81,94.81,0,0,0-14.71-5.42,62.77,62.77,0,0,0-17.42-2.51q-13.54,0-21.68,6.77a21.27,21.27,0,0,0-8.13,17,18.45,18.45,0,0,0,4.65,12.88,38.45,38.45,0,0,0,12.19,8.71q7.56,3.57,16.07,6.87,6.76,2.51,13.45,5.61a56.34,56.34,0,0,1,12.1,7.55,32.46,32.46,0,0,1,8.61,11q3.2,6.58,3.2,16.26a37.82,37.82,0,0,1-5.42,20.23,36.44,36.44,0,0,1-15.1,13.64,49.56,49.56,0,0,1-22.45,4.84,65.29,65.29,0,0,1-18.68-2.51,78.46,78.46,0,0,1-14.71-5.91q-6.3-3.37-10-5.71l4.45-7.74a75.72,75.72,0,0,0,10.36,6.19,78.29,78.29,0,0,0,13.25,5.23,50.07,50.07,0,0,0,14.33,2.13,41.44,41.44,0,0,0,16.16-3.29,31.36,31.36,0,0,0,13-10q5.13-6.67,5.13-16.94,0-9.87-4.84-16a37.34,37.34,0,0,0-12.39-10,139.71,139.71,0,0,0-16.06-7q-6.58-2.52-13.17-5.32a60,60,0,0,1-12-6.78,30.46,30.46,0,0,1-8.61-9.58,27,27,0,0,1-3.19-13.55,29.75,29.75,0,0,1,5-17.23,34.09,34.09,0,0,1,13.64-11.51,46.52,46.52,0,0,1,19.65-4.36,80,80,0,0,1,19.65,2.52,78.77,78.77,0,0,1,17.32,6.39Z"/><path class="cls-3" d="M1821.18,1456h9.48v137.42h-9.48Z"/><path class="cls-3" d="M1978.15,1583.72a48.69,48.69,0,0,1-8.42,4.35,90.56,90.56,0,0,1-10.55,3.58,94.34,94.34,0,0,1-11.51,2.42,79.93,79.93,0,0,1-40.46-4.45,66.06,66.06,0,0,1-22.35-14.71,64.36,64.36,0,0,1-14.23-21.87,72.84,72.84,0,0,1-4.94-27,73.87,73.87,0,0,1,5.52-28.85,69.43,69.43,0,0,1,15.19-22.74,68.24,68.24,0,0,1,22.46-14.8,70.71,70.71,0,0,1,27.1-5.23,74.63,74.63,0,0,1,20.42,2.71,71.57,71.57,0,0,1,17.32,7.35l-3.49,8.52a55.46,55.46,0,0,0-10.06-4.74,77.93,77.93,0,0,0-11.52-3.2,60.92,60.92,0,0,0-11.71-1.16,63.15,63.15,0,0,0-24.39,4.65,59.17,59.17,0,0,0-32.51,32.52,66.47,66.47,0,0,0-.29,48.1,57.73,57.73,0,0,0,12.38,19.16,56,56,0,0,0,19.26,12.77,65.78,65.78,0,0,0,25,4.55,80.14,80.14,0,0,0,17-1.93,53,53,0,0,0,15.3-5.62V1540h-31v-9.1h40.45Z"/><path class="cls-3" d="M2132.8,1596.68l-108.39-122.13,2.52-1.94.19,120.78h-9.29V1453.06h.58l108.39,123.11-2.51.77-.2-121h9.1v140.71Z"/></g></g></svg>